<svg width="40" height="28" viewBox="0 0 40 28" fill="none" xmlns="http://www.w3.org/2000/svg">
<g id="export">
<path id="Shape" fill-rule="evenodd" clip-rule="evenodd" d="M36.7842 6.7558L37.525 7.28137L37.5261 7.28213C38.7898 8.14247 39.8922 8.89299 39.8913 10.5064C39.8913 12.1815 38.5589 13.0522 37.4886 13.7517L37.4878 13.7521C37.3644 13.8403 37.2106 13.9472 37.0564 14.0537C37.0267 14.0744 36.997 14.095 36.9673 14.1157C36.8124 14.2235 36.6576 14.3312 36.5051 14.4402L36.1062 14.7266C34.7071 15.7319 33.2594 16.772 31.8158 17.7616C31.5532 17.942 31.2861 18.1279 31.0221 18.3134C30.5012 18.6801 29.9549 19.0593 29.4087 19.4113C29.2669 19.5022 29.1039 19.6197 28.9465 19.7418C28.3598 20.1976 27.6006 20.7645 26.6876 20.7645C26.3163 20.7645 25.9009 20.6681 25.5663 20.4781C24.6046 19.9323 23.8684 18.9344 23.8684 17.937V14.9465C23.4094 14.907 22.6928 14.8868 22.0741 14.8868C9.74719 14.8868 7.00365 22.6474 6.88797 22.9779C6.75761 23.3515 6.3982 23.5948 6.01355 23.5948C5.96306 23.5948 5.89696 23.5911 5.84601 23.582C5.40489 23.5071 5.05237 23.1266 5.05237 22.6786C5.05237 7.07298 20.6135 6.28255 23.744 6.28255C23.8294 6.28255 23.8688 6.28301 23.8688 6.28347V3.07678C23.8688 1.86085 24.9819 0.407601 26.4145 0.267142C27.4707 0.159732 28.4365 0.792715 29.1007 1.28845C29.1134 1.29787 29.126 1.30727 29.1385 1.31663C29.2577 1.40535 29.3728 1.49109 29.4854 1.56708C30.4126 2.19455 31.3265 2.86242 32.2101 3.50826C32.9748 4.0678 33.7657 4.64524 34.5529 5.18826C35.3011 5.70373 36.0433 6.23022 36.7842 6.7558ZM36.0971 12.4861C36.2174 12.4027 36.3376 12.3193 36.456 12.2351C37.5714 11.5052 38.0552 11.0903 38.0552 10.5069C38.0552 9.96065 37.8188 9.7036 36.4762 8.79016L35.7179 8.25403C34.9844 7.73304 34.2449 7.21114 33.504 6.70026C32.6957 6.14347 31.8869 5.55731 31.1121 4.99088C30.2414 4.35468 29.327 3.69645 28.4278 3.0878C28.3854 3.05924 28.3402 3.02949 28.2936 2.9988C28.1791 2.92341 28.056 2.84232 27.9444 2.75914C27.5065 2.43186 26.9635 2.06832 26.594 2.09403C26.2318 2.12983 25.7049 2.65311 25.7049 3.07678V7.22078C25.7049 7.72754 25.5231 7.96393 25.0164 7.96393H24.7065C24.6967 7.96393 24.6859 7.98536 24.6751 8.00681C24.6641 8.02851 24.6531 8.05023 24.6432 8.04976C24.6403 8.04952 24.6284 8.05162 24.608 8.05522C24.516 8.07153 24.2502 8.11862 23.8514 8.11862C22.1663 8.11862 17.825 8.33114 13.9798 10.3026C10.4036 12.1359 8.16175 15.0011 7.31073 18.8477C9.59893 16.2046 14.005 13.0507 22.1356 13.0507C23.0711 13.0507 23.9905 13.0934 24.9806 13.1793C25.4552 13.2201 25.7049 13.6172 25.7049 14.0936V17.9365C25.7049 18.2633 26.1006 18.6696 26.4733 18.8812C26.5463 18.9229 26.7111 18.9285 26.7459 18.9285C27.0293 18.9285 27.5012 18.5623 27.8471 18.294L27.8499 18.2918C28.039 18.1445 28.2345 17.9925 28.431 17.8667C28.9329 17.5441 29.4428 17.1855 29.9374 16.8376L29.9733 16.8124L30.0232 16.7772C30.276 16.5994 30.5284 16.4218 30.7812 16.2483C32.1989 15.276 33.6271 14.2494 35.0094 13.2558L35.0367 13.2362L35.4356 12.9493C35.6256 12.813 35.8189 12.6789 36.0116 12.5454C36.0401 12.5256 36.0686 12.5058 36.0971 12.4861Z" fill="#315581"/>
<path id="Path" d="M28.313 27.7016C30.6205 27.7016 32.1311 26.1157 32.1311 23.7812V21.4503C32.1311 20.9435 31.7199 20.5323 31.2131 20.5323C30.7064 20.5323 30.2951 20.9435 30.2951 21.4503V23.7812C30.2951 25.111 29.6153 25.8656 28.313 25.8656H4.49239C3.13141 25.8656 1.83607 25.0481 1.83607 23.7812V8.58499C1.83607 7.32683 3.15436 6.12787 4.49239 6.12787H13.541C14.0477 6.12787 14.459 5.7166 14.459 5.20984C14.459 4.70309 14.0477 4.29181 13.541 4.29181H4.49239C2.14177 4.29181 0 6.31378 0 8.58499V23.7812C0 26.0395 2.14177 27.7016 4.49239 27.7016H28.313Z" fill="#315581"/>
</g>
</svg>
