<svg width="30" height="18" viewBox="0 0 30 18" fill="none" xmlns="http://www.w3.org/2000/svg">
<path id="menu" fill-rule="evenodd" clip-rule="evenodd" d="M0 1C0 0.447715 0.447715 0 1 0H29C29.5523 0 30 0.447715 30 1C30 1.55228 29.5523 2 29 2H1C0.447716 2 0 1.55228 0 1ZM0 9C0 8.44772 0.447715 8 1 8H29C29.5523 8 30 8.44772 30 9C30 9.55228 29.5523 10 29 10H1C0.447716 10 0 9.55228 0 9ZM1 16C0.447715 16 0 16.4477 0 17C0 17.5523 0.447716 18 1 18H29C29.5523 18 30 17.5523 30 17C30 16.4477 29.5523 16 29 16H1Z" fill="#315581"/>
</svg>
