<svg width="35" height="35" viewBox="0 0 35 35" fill="none" xmlns="http://www.w3.org/2000/svg">
<rect opacity="0.5" x="10.5356" y="22.0502" width="2" height="12" rx="1" transform="rotate(45 10.5356 22.0502)" fill="#022037"/>
<g filter="url(#filter0_d)">
<path fill-rule="evenodd" clip-rule="evenodd" d="M17.5 26C23.299 26 28 21.299 28 15.5C28 9.70101 23.299 5 17.5 5C11.701 5 7 9.70101 7 15.5C7 21.299 11.701 26 17.5 26Z" fill="#F7B500"/>
</g>
<path fill-rule="evenodd" clip-rule="evenodd" d="M14.5 16C16.433 16 18 14.433 18 12.5C18 10.567 16.433 9 14.5 9C12.567 9 11 10.567 11 12.5C11 14.433 12.567 16 14.5 16Z" fill="#FCD771"/>
<defs>
<filter id="filter0_d" x="0" y="0" width="35" height="35" filterUnits="userSpaceOnUse" color-interpolation-filters="sRGB">
<feFlood flood-opacity="0" result="BackgroundImageFix"/>
<feColorMatrix in="SourceAlpha" type="matrix" values="0 0 0 0 0 0 0 0 0 0 0 0 0 0 0 0 0 0 127 0"/>
<feOffset dy="2"/>
<feGaussianBlur stdDeviation="3.5"/>
<feColorMatrix type="matrix" values="0 0 0 0 0.523296 0 0 0 0 0 0 0 0 0 0 0 0 0 0.2 0"/>
<feBlend mode="normal" in2="BackgroundImageFix" result="effect1_dropShadow"/>
<feBlend mode="normal" in="SourceGraphic" in2="effect1_dropShadow" result="shape"/>
</filter>
</defs>
</svg>
