<svg width="27" height="28" viewBox="0 0 27 28" fill="none" xmlns="http://www.w3.org/2000/svg">
<path id="icons/search" fill-rule="evenodd" clip-rule="evenodd" d="M17.8105 23.4656C15.1749 24.5843 12.2808 24.705 9.5872 23.8616C6.18993 22.798 3.39062 20.2929 1.95974 16.922C-0.67658 10.7112 2.14573 3.57119 8.26355 0.974329C14.3814 -1.62253 21.478 1.30714 24.1143 7.51793C25.517 10.8224 25.4086 14.4962 23.8975 17.6424C23.1801 19.1363 22.3943 20.2805 21.5226 21.0666L26.7017 26.2575C27.0959 26.6525 27.0999 27.2971 26.7108 27.6972C26.3217 28.0973 25.6868 28.1014 25.2926 27.7064L19.8928 22.2944C19.2268 22.7683 18.5326 23.1591 17.8105 23.4656ZM19.3944 20.1085L19.5481 20.0022C20.4099 19.5191 21.271 18.4387 22.0871 16.7394C23.3474 14.1155 23.4376 11.0567 22.2681 8.3016C20.0712 3.12594 14.1573 0.684551 9.05913 2.8486C3.96095 5.01265 1.60902 10.9627 3.80596 16.1383C4.99893 18.9488 7.32973 21.0346 10.1631 21.9217C12.4084 22.6247 14.817 22.5243 17.0149 21.5913C17.8455 21.2388 18.6381 20.7455 19.3944 20.1085Z" fill="#315581"/>
</svg>
